<?xml version="1.0" standalone="no"?>
<!DOCTYPE svg PUBLIC "-//W3C//DTD SVG 1.1//EN" "http://www.w3.org/Graphics/SVG/1.1/DTD/svg11.dtd" >
<svg xmlns="http://www.w3.org/2000/svg">
<metadata>Generated by IcoMoon</metadata>
<defs>
<font id="icomoon" horiz-adv-x="1024">
<font-face units-per-em="1024" ascent="960" descent="-64" />
<missing-glyph horiz-adv-x="1024" />
<glyph unicode="&#x20;" horiz-adv-x="512" d="" />
<glyph unicode="&#xe900;" glyph-name="boult-right" d="M357.957 792.824l-49.463-48.973 294.308-296.327-296.782-293.831 49.044-49.381 346.239 342.809z" />
<glyph unicode="&#xe901;" glyph-name="code" d="M1008.921-64h-30.116c-8.312 0-15.058 6.746-15.058 15.058v391.514c0 8.312 6.746 15.058 15.058 15.058h30.116c8.312 0 15.058-6.746 15.058-15.058v-391.514c0-8.312-6.746-15.058-15.058-15.058zM1008.921 417.893h-993.843c-8.312 0-15.058 6.716-15.058 15.028v30.147c0 8.312 6.746 15.058 15.058 15.058h993.843c8.312 0 15.058-6.746 15.058-15.058v-30.147c0-8.312-6.746-15.028-15.058-15.028zM963.747 538.359h-301.164c-33.279 0-60.233 26.954-60.233 60.233v301.164c0 33.249 26.954 60.233 60.233 60.233h301.164c33.249 0 60.233-26.984 60.233-60.233v-301.164c0-33.279-26.984-60.233-60.233-60.233zM963.747 899.756h-301.164v-301.164h301.164v301.164zM527.058 538.359h-30.116c-8.312 0-15.058 6.746-15.058 15.058v391.514c0 8.312 6.746 15.058 15.058 15.058h30.116c8.312 0 15.058-6.746 15.058-15.058v-391.514c0-8.312-6.746-15.058-15.058-15.058zM361.418 538.359h-301.164c-33.279 0-60.233 26.954-60.233 60.233v301.164c0 33.249 26.954 60.233 60.233 60.233h301.164c33.249 0 60.233-26.984 60.233-60.233v-301.164c0-33.279-26.984-60.233-60.233-60.233zM361.418 899.756h-301.164v-301.164h301.164v301.164zM60.253 357.63h301.164c33.249 0 60.233-26.954 60.233-60.233v-301.164c0-33.249-26.984-60.233-60.233-60.233h-301.164c-33.279 0-60.233 26.984-60.233 60.233v301.164c0 33.279 26.954 60.233 60.233 60.233zM60.253-3.737h301.164v301.164h-301.164v-301.164zM496.942 357.63h30.116c8.312 0 15.058-6.746 15.058-15.058v-301.134c0-8.342-6.746-15.058-15.058-15.058h-30.116c-8.312 0-15.058 6.716-15.058 15.058v301.134c0 8.312 6.746 15.058 15.058 15.058zM677.64 237.164h30.116c8.312 0 15.058-6.746 15.058-15.058v-271.048c0-8.312-6.746-15.058-15.058-15.058h-30.116c-8.312 0-15.058 6.746-15.058 15.058v271.048c0 8.312 6.746 15.058 15.058 15.058zM828.223 297.427h30.116c8.312 0 15.058-6.746 15.058-15.058v-331.311c0-8.312-6.746-15.058-15.058-15.058h-30.116c-8.312 0-15.058 6.746-15.058 15.058v331.311c0 8.312 6.746 15.058 15.058 15.058z" />
<glyph unicode="&#xe902;" glyph-name="crook" d="M512.3-0.5c-247.5 0-448.1 200.6-448.1 448.1s200.6 448.2 448.1 448.2 448.1-200.6 448.1-448.1-200.6-448.2-448.1-448.2zM764.9 586.6c-8.8 8.7-22.9 8.7-31.7 0l-269.4-269.4-142.6 142.6c-8.8 8.8-22.9 8.8-31.7 0-8.7-8.8-8.7-22.9 0-31.7l158.5-158.4c8.8-8.7 22.9-8.7 31.7 0l285.2 285.2c8.7 8.8 8.7 23 0 31.7z" />
<glyph unicode="&#xe903;" glyph-name="deal" d="M903.253 666.45c-10.905 19.356-21.754 35.794-33.607 51.429l0.809-1.113 34.811-12.67c16.608-6.045 34.971 2.519 41.015 19.125s-2.518 34.97-19.125 41.015l-180.421 65.667c-16.608 6.045-34.971-2.518-41.015-19.125-1.225-3.249-1.933-7.005-1.933-10.926 0-1.802 0.15-3.568 0.437-5.288l-0.026 0.186c1.115-9.155 6.154-17.76 14.528-23.121 110.983-71.053 177.243-192.036 177.243-323.629 0-211.721-172.248-383.969-383.969-383.969-17.69 0-32.031-14.341-32.031-32.031s14.341-32.031 32.031-32.031c60.47 0 119.147 11.85 174.404 35.222 53.354 22.567 101.266 54.867 142.401 96.004 41.137 41.136 73.437 89.047 96.004 142.401 23.373 55.257 35.222 113.934 35.222 174.404 0 76.515-19.634 152.054-56.778 218.45zM305.273 124.371c-110.983 71.053-177.242 192.036-177.242 323.629 0 211.721 172.248 383.969 383.969 383.969 17.69 0 32.031 14.341 32.031 32.031s-14.341 32.031-32.031 32.031c-60.47 0-119.147-11.85-174.404-35.222-53.355-22.567-101.266-54.867-142.402-96.003s-73.437-89.047-96.004-142.402c-23.371-55.256-35.221-113.934-35.221-174.404 0-76.516 19.633-152.054 56.778-218.449 10.904-19.356 21.753-35.794 33.606-51.429l-0.809 1.113-34.81 12.67c-16.608 6.045-34.971-2.519-41.015-19.126s2.518-34.97 19.125-41.015l180.421-65.668c16.607-6.044 34.97 2.519 41.015 19.126 1.224 3.249 1.933 7.003 1.933 10.924 0 1.82-0.153 3.605-0.446 5.342l0.026-0.187c-1.126 9.136-6.162 17.72-14.52 23.070zM480 224c0-17.674 14.326-32 32-32s32 14.326 32 32v96h128c17.673 0 32 14.326 32 32s-14.327 32-32 32h-128v64h128c17.673 0 32 14.327 32 32s-14.327 32-32 32h-75.745l81.255 81.255c12.496 12.497 12.497 32.758 0 45.255s-32.759 12.497-45.255 0l-119.755-119.755-118.755 118.755c-12.496 12.497-32.758 12.498-45.255 0s-12.496-32.758 0-45.255l80.255-80.255h-76.745c-17.673 0-32-14.327-32-32s14.327-32 32-32h128v-64h-128c-17.673 0-32-14.326-32-32s14.327-32 32-32h128v-96z" />
<glyph unicode="&#xe904;" glyph-name="eye-open" d="M515.070 126.638c-179.279 0-346.586 96.496-436.43 251.932-9.721 16.884-3.991 38.475 12.893 48.197s38.475 3.991 48.197-12.893c77.36-133.641 221.132-216.629 375.34-216.629s298.083 82.988 375.34 216.629c9.721 16.884 31.312 22.615 48.197 12.893s22.615-31.312 12.893-48.197c-89.844-155.437-257.151-251.932-436.43-251.932zM921.006 473.736c-12.177 0-24.047 6.344-30.596 17.6-77.36 133.641-221.132 216.629-375.34 216.629s-297.98-82.988-375.34-216.629c-9.721-16.884-31.312-22.615-48.197-12.893s-22.615 31.312-12.893 48.197c89.844 155.437 257.151 251.932 436.43 251.932s346.586-96.496 436.43-251.932c9.721-16.884 3.991-38.475-12.893-48.197-5.526-3.172-11.665-4.707-17.6-4.707zM515.070 259.562c-105.296 0-190.842 85.649-190.842 190.842s85.649 190.842 190.842 190.842 190.842-85.649 190.842-190.842-85.547-190.842-190.842-190.842zM515.070 570.743c-66.309 0-120.338-53.927-120.338-120.338s53.927-120.338 120.338-120.338 120.338 54.029 120.338 120.338-54.029 120.338-120.338 120.338z" />
<glyph unicode="&#xe905;" glyph-name="eye-shut" d="M986.624 657.152c-130.929-97.597-304.072-156.175-466.58-157.256-161.587-1.070-336.722 60.462-466.58 157.256-26.506 19.758-51.983-24.719-25.841-44.211 43.94-32.748 93.763-58.752 143.314-81.7 109.44-50.683 228.116-81.741 349.107-82.545 118.717-0.788 235.643 31.734 343.291 79.892 51.661 23.117 103.593 50.412 149.13 84.352 26.148 19.492 0.666 63.969-25.841 44.211zM363.581 481.101l-26.547-157.716c-5.437-32.287 43.899-46.116 49.372-13.609l26.547 157.716c5.432 32.287-43.899 46.116-49.372 13.609zM645.832 467.492l26.547-157.716c5.468-32.507 54.804-18.673 49.372 13.609l-26.547 157.716c-5.473 32.507-54.81 18.678-49.372-13.609zM119.849 586.726l-88.335-142.198c-17.475-28.129 26.829-53.816 44.211-25.841l88.335 142.198c17.475 28.129-26.834 53.816-44.211 25.841zM850.627 538.291l88.335-142.208c17.382-27.976 61.686-2.289 44.211 25.841l-88.335 142.208c-17.382 27.976-61.686 2.289-44.211-25.841z" />
<glyph unicode="&#xe906;" glyph-name="fund" d="M944.873 257.164h-195.491c-74.473 0-132.655 60.509-132.655 132.655v114.036c0 74.473 60.509 132.655 132.655 132.655h195.491c6.982 0 13.964 0 20.945-2.327v34.909c0 83.782-67.491 151.273-151.273 151.273h-616.727c-83.782 0-151.273-67.491-151.273-148.945v-444.509c0-83.782 67.491-151.273 151.273-151.273h616.727c83.782 0 151.273 67.491 151.273 148.945v34.909c-6.982 0-13.964-2.327-20.945-2.327zM749.382 538.764c-18.618 0-32.582-16.291-32.582-32.582v-114.036c0-18.618 16.291-32.582 32.582-32.582h195.491c18.618 0 32.582 16.291 32.582 32.582v114.036c0 18.618-16.291 32.582-32.582 32.582h-195.491z" />
<glyph unicode="&#xe907;" glyph-name="liebiao_vip" d="M649.524 408.814h-50.087v-72.956h52.362c18.263 0 47.799 4.921 47.799 37.175 0 32.257-25.066 35.781-50.073 35.781v0zM859.771 666.407c-54.649 0-98.946-44.297-98.946-98.947 0-9.504 1.423-18.663 3.919-27.363l-123.579-12.345-87.244 74.724c27.887 17.501 46.483 48.434 46.483 83.784 0 54.645-44.297 98.942-98.938 98.942-54.649 0-98.951-44.298-98.951-98.942 0-35.65 18.916-66.795 47.194-84.211l-86.753-74.297-104.199 10.411c2.87 9.253 4.417 19.094 4.417 29.297 0 54.65-44.297 98.947-98.937 98.947-54.65 0-98.947-44.297-98.947-98.947 0-54.64 44.297-98.937 98.947-98.937 7.199 0 14.194 0.814 20.959 2.267l98.261-359.992h437.194l99.875 365.849c12.035-5.207 25.289-8.124 39.244-8.124 54.641 0 98.938 44.297 98.938 98.937 0.001 54.65-44.296 98.947-98.937 98.947v0zM390.702 228.804h-27.499l-78.467 204.091h29.016l63.272-181.679 65.614 181.679h27.354l-79.29-204.091zM525.396 228.804h-26.8v204.092h26.8v-204.092zM651.39 311.774h-51.953v-82.971h-26.8v204.092h76.398c31.824 0 78.195-2.766 78.195-59.025 0-56.255-50.558-62.096-75.839-62.096v0z" />
<glyph unicode="&#xe908;" glyph-name="manual-service" d="M718.4 654.4c-54.4 54.4-128 84.8-206.4 84.8s-152-30.4-206.4-84.8c-94.4-94.4-112-238.4-44.8-353.6v-84.8c0-33.6 27.2-60.8 60.8-60.8s60.8 27.2 60.8 60.8v144c0 33.6-27.2 60.8-60.8 60.8-22.4 0-43.2-12.8-52.8-32-20.8 83.2 3.2 174.4 67.2 238.4 48 48 110.4 73.6 177.6 73.6s131.2-25.6 177.6-73.6c64-64 88-153.6 67.2-238.4-9.6 19.2-30.4 32-52.8 32-33.6 0-60.8-27.2-60.8-60.8v-144c0-14.4 6.4-28.8 14.4-40-30.4-22.4-68.8-27.2-99.2-27.2-3.2 24-22.4 41.6-48 41.6-27.2 0-48-20.8-48-48s20.8-48 48-48c12.8 0 25.6 4.8 33.6 14.4h17.6c41.6 0 94.4 9.6 134.4 46.4h6.4c33.6 0 60.8 27.2 60.8 60.8v84.8c67.2 115.2 48 259.2-46.4 353.6zM300.8 360c0 11.2 9.6 19.2 19.2 19.2s19.2-9.6 19.2-19.2v-144c0-11.2-9.6-19.2-19.2-19.2s-19.2 9.6-19.2 19.2v144zM724.8 216c0-11.2-9.6-19.2-19.2-19.2s-19.2 9.6-19.2 19.2v144c0 11.2 9.6 19.2 19.2 19.2s19.2-9.6 19.2-19.2v-144z" />
<glyph unicode="&#xe909;" glyph-name="market" d="M73.877 431.956h67.826v-406.964h-67.826v406.964zM345.456 24.992h67.827v528.476h-67.827v-528.476zM617.036 24.992h67.826v452.725h-67.827v-452.725zM883.498 656.224v-631.232h67.827v631.232h-67.827zM923.004 874.567l-316.331-221.677-209.99 148.15-348.7-201.746 30.897-53.398 314.501 181.935 213.182-150.401 351.863 246.622-35.422 50.515z" />
<glyph unicode="&#xe90a;" glyph-name="me" d="M446.56 848c119.294 0 216-96.706 216-216s-96.706-216-216-216c-119.294 0-216 96.706-216 216v0c0 0.047 0 0.104 0 0.16 0 119.205 96.635 215.84 215.84 215.84 0.056 0 0.113 0 0.169 0h-0.009zM446.56 896c-145.803 0-264-118.197-264-264s118.197-264 264-264c145.803 0 264 118.197 264 264v0c0 145.803-118.197 264-264 264v0zM446.56 336c0.413 0.002 0.902 0.003 1.391 0.003 36.659 0 71.95-5.854 104.991-16.678l-2.382 0.675c21.309-7.129 39.393-15.029 56.631-24.299l-1.911 0.939c9.364 14.189 19.924 26.477 31.84 37.297l0.16 0.143c-14.404 8.322-31.569 16.648-49.334 23.796l-2.826 1.004c-41.062 16.346-88.646 25.825-138.444 25.825-195.406 0-356.723-145.956-380.877-334.795l-0.199-1.91-1.6-12.48c-0.124-1.056-0.194-2.28-0.194-3.521 0-17.673 14.327-32 32-32 0.068 0 0.137 0 0.205 0.001h454.55c13.255 0 24 10.745 24 24s-10.745 24-24 24v0h-436.48c24.299 163.746 163.878 287.962 332.476 288h0.004zM768 247.040l23.2-42.88c6.948-12.646 20.165-21.083 35.355-21.12h0.005c0.011 0 0.025 0 0.039 0 5.348 0 10.449 1.058 15.105 2.976l-0.264-0.096-12.96-65.92h-121.12l-14.080 68.64c4.304-1.822 9.308-2.88 14.56-2.88 0.056 0 0.113 0 0.169 0h-0.009c0.012 0 0.026 0 0.041 0 14.532 0 27.254 7.749 34.259 19.341l0.1 0.179zM768 304c-2.967-0.017-5.541-1.678-6.859-4.118l-0.021-0.042-46.080-77.44c-1.55-2.315-4.101-3.855-7.019-3.999l-0.021-0.001c-1.986 0.037-3.782 0.821-5.124 2.084l0.004-0.004-40.8 35.52c-1.398 1.256-3.244 2.038-5.271 2.080h-0.009c-2.773-0.145-5.19-1.552-6.702-3.654l-0.018-0.026c-1.077-1.461-1.724-3.297-1.724-5.284 0-0.795 0.103-1.565 0.298-2.299l-0.014 0.062 30.72-150.88c0.141-4.591 3.432-8.374 7.777-9.269l0.063-0.011h160.8c4.139 0.112 7.53 3.173 8.154 7.152l0.006 0.048 30.4 153.76c0.18 0.671 0.284 1.442 0.284 2.236 0 1.987-0.647 3.823-1.741 5.308l0.017-0.025c-1.53 2.128-3.947 3.535-6.698 3.679l-0.022 0.001c-0.022 0-0.047 0-0.073 0-2.129 0-4.043-0.924-5.361-2.394l-0.006-0.007-40.96-39.040c-1.381-1.433-3.299-2.341-5.429-2.4h-0.011c-3.132 0.033-5.838 1.825-7.179 4.434l-0.021 0.046-43.2 80c-1.282 2.657-3.948 4.462-7.038 4.48h-0.002zM768 352c88.366 0 160-71.634 160-160s-71.634-160-160-160c-88.366 0-160 71.634-160 160v0c0 88.366 71.634 160 160 160v0zM768 384c-106.039 0-192-85.961-192-192s85.961-192 192-192c106.039 0 192 85.961 192 192v0c0 106.039-85.961 192-192 192v0z" />
<glyph unicode="&#xe90b;" glyph-name="member" d="M232.1 96.5h573.9l85.9 458.7-225-153-147.9 382.3-145-381.7-226.2 152.4zM519.4 672.8l128.4-332 187.1 127.3-62.1-331.6h-507.4l-61.1 332.4 189-127.4 17.9 47.1 108.2 284.2zM519 784.5l-145-381.7-226.2 152.4 84.3-458.7h573.9l85.9 458.7-225-153.1-147.9 382.4zM466.7 844.9c0-29.382 23.818-53.2 53.2-53.2s53.2 23.818 53.2 53.2v0c0 29.382-23.818 53.2-53.2 53.2s-53.2-23.818-53.2-53.2v0zM868.8 590.9c0-19.661 15.939-35.6 35.6-35.6s35.6 15.939 35.6 35.6v0c0 19.661-15.939 35.6-35.6 35.6s-35.6-15.939-35.6-35.6v0zM101.3 590.9c0-19.661 15.939-35.6 35.6-35.6s35.6 15.939 35.6 35.6v0c0 19.661-15.939 35.6-35.6 35.6s-35.6-15.939-35.6-35.6v0zM288.1 34.4h458.9zM747 14.4h-458.9c-11 0-20 9-20 20s9 20 20 20h458.9c11 0 20-9 20-20s-9-20-20-20z" />
<glyph unicode="&#xe90c;" glyph-name="message" horiz-adv-x="1078" d="M193.352 223.672c0 0-0.001 0-0.002 0-7.392 0-13.384 5.992-13.384 13.384 0 1.281 0.18 2.521 0.516 3.694l-0.023-0.094 27.387 98.135h-46.618c-42.803 0-77.635 34.826-77.635 77.635v364.063c0 42.803 34.826 77.635 77.635 77.635h546.099c42.803 0 77.635-34.826 77.635-77.635v-364.068c0-42.803-34.826-77.635-77.635-77.635h-343.818l-162.534-112.732c-2.125-1.49-4.765-2.381-7.613-2.381-0.004 0-0.007 0-0.011 0h0.001zM161.229 831.35c-28.047 0-50.862-22.815-50.862-50.862v-364.068c0-28.047 22.815-50.862 50.862-50.862h64.246c0.002 0 0.004 0 0.007 0 7.389 0 13.379-5.99 13.379-13.379 0-1.281-0.18-2.521-0.516-3.694l0.023 0.094-22.149-79.37 135.475 93.967c2.13 1.492 4.775 2.385 7.629 2.386h348.007c28.047 0 50.862 22.815 50.862 50.862v364.063c0 28.047-22.815 50.862-50.862 50.862h-546.099zM873.303 37.878c-0.002 0-0.004 0-0.006 0-3.128 0-6.005 1.076-8.28 2.878l0.028-0.021-149.98 117.622h-343.383c-42.803 0-77.635 34.826-77.635 77.635v17.132c0 7.392 5.992 13.384 13.384 13.384s13.384-5.992 13.384-13.384v0-17.132c0-28.047 22.815-50.862 50.862-50.862h348.006c2.995 0 5.903-1.004 8.259-2.857l126.587-99.272-14.208 86.574c-0.115 0.659-0.181 1.417-0.181 2.191 0 7.38 5.983 13.363 13.363 13.363 0.008 0 0.016 0 0.023 0h64.245c28.047 0 50.862 22.815 50.862 50.862v364.063c0 28.047-22.815 50.862-50.862 50.862h-79.278c-7.392 0-13.384 5.992-13.384 13.384s5.992 13.384 13.384 13.384h79.278c42.803 0 77.635-34.826 77.635-77.635v-364.068c0-42.803-34.826-77.635-77.635-77.635h-48.486l17.219-104.919c0.114-0.656 0.179-1.411 0.179-2.181 0-7.383-5.985-13.368-13.368-13.368-0.004 0-0.007 0-0.011 0h0.001zM544.036 740.152h-366.746c-7.392 0-13.384 5.992-13.384 13.384s5.992 13.384 13.384 13.384h366.746c7.392 0 13.384-5.992 13.384-13.384s-5.992-13.384-13.384-13.384v0zM360.663 634.849h-183.373c-7.392 0-13.384 5.992-13.384 13.384s5.992 13.384 13.384 13.384h183.373c7.392 0 13.384-5.992 13.384-13.384s-5.992-13.384-13.384-13.384v0zM616.315 527.508h-439.025c-7.392 0-13.384 5.992-13.384 13.384s5.992 13.384 13.384 13.384h439.025c7.392 0 13.384-5.992 13.384-13.384s-5.992-13.384-13.384-13.384v0z" />
<glyph unicode="&#xe90d;" d="M187.733 960h648.533v-1024h-648.533z" />
<glyph unicode="&#xe90e;" d="M187.733 960h648.533v-1024z" />
<glyph unicode="&#xe90f;" d="M785.067-12.8h-546.133v853.333h34.133v-819.2h477.867v819.2h34.133z" />
<glyph unicode="&#xe910;" d="M785.067-12.8v853.333h-34.133v-819.2zM273.067 21.333v819.2h-34.133z" />
<glyph unicode="&#xe911;" d="M187.733 821.76l324.267-160.427 324.267 160.427v138.24h-648.533z" />
<glyph unicode="&#xe912;" d="M512 659.627l324.267 162.133v138.24h-648.533z" />
<glyph unicode="&#xe913;" d="M512 659.627l324.267 162.133v138.24z" />
<glyph unicode="&#xe914;" d="M336.213 357.547c0-97.084 78.702-175.787 175.787-175.787s175.787 78.702 175.787 175.787v0c0 97.084-78.702 175.787-175.787 175.787s-175.787-78.702-175.787-175.787v0z" />
<glyph unicode="&#xe915;" d="M512 531.627c97.28 0 175.787-78.507 175.787-175.787s-78.507-174.080-175.787-174.080z" />
<glyph unicode="&#xe916;" d="M512.58 265.611l-90.522 90.494 90.496 90.519 90.517-90.496z" />
<glyph unicode="&#xe917;" d="M512 446.293l90.453-88.747-90.453-90.453z" />
<glyph unicode="&#xe918;" d="M498.347 896.853c0-7.541 6.113-13.653 13.653-13.653s13.653 6.113 13.653 13.653v0c0 7.541-6.113 13.653-13.653 13.653s-13.653-6.113-13.653-13.653v0z" />
<glyph unicode="&#xe919;" d="M498.347 826.88c0-7.541 6.113-13.653 13.653-13.653s13.653 6.113 13.653 13.653v0c0 7.541-6.113 13.653-13.653 13.653s-13.653-6.113-13.653-13.653v0z" />
<glyph unicode="&#xe91a;" d="M498.347 756.907c0-7.541 6.113-13.653 13.653-13.653s13.653 6.113 13.653 13.653v0c0 7.541-6.113 13.653-13.653 13.653s-13.653-6.113-13.653-13.653v0z" />
<glyph unicode="&#xe91b;" d="M500.053 477.013c0-6.598 5.349-11.947 11.947-11.947s11.947 5.349 11.947 11.947v0c0 6.598-5.349 11.947-11.947 11.947s-11.947-5.349-11.947-11.947v0z" />
<glyph unicode="&#xe91c;" d="M500.053 236.373c0-6.598 5.349-11.947 11.947-11.947s11.947 5.349 11.947 11.947v0c0 6.598-5.349 11.947-11.947 11.947s-11.947-5.349-11.947-11.947v0z" />
<glyph unicode="&#xe91d;" d="M619.52 357.547c0-0.001 0-0.002 0-0.003 0-6.598 5.349-11.947 11.947-11.947s11.947 5.349 11.947 11.947c0 0.001 0 0.002 0 0.004v0c0 0.001 0 0.002 0 0.003 0 6.598-5.349 11.947-11.947 11.947s-11.947-5.349-11.947-11.947c0-0.001 0-0.002 0-0.004v0z" />
<glyph unicode="&#xe91e;" d="M380.587 357.547c0-0.001 0-0.002 0-0.003 0-6.598 5.349-11.947 11.947-11.947s11.947 5.349 11.947 11.947c0 0.001 0 0.002 0 0.004v0c0 0.001 0 0.002 0 0.003 0 6.598-5.349 11.947-11.947 11.947s-11.947-5.349-11.947-11.947c0-0.001 0-0.002 0-0.004v0z" />
<glyph unicode="&#xe91f;" glyph-name="packet" d="M685.944 355.554c12.378 0 22.423 10.571 22.423 23.597 0 13.041-10.044 23.597-22.423 23.597h-105.577l113.483 113.483c6.129 6.129 3.614 18.568-5.587 27.799-9.216 9.216-21.67 11.716-27.814 5.587l-120.109-120.124-120.124 120.124c-6.129 6.129-18.568 3.629-27.799-5.587s-11.716-21.655-5.587-27.799l113.483-113.483h-100.006c-12.378 0-22.423-10.556-22.423-23.597 0-13.026 10.044-23.597 22.423-23.597h118.016v-73.171h-118.016c-12.378 0-22.423-10.556-22.423-23.597 0-13.026 10.044-23.597 22.423-23.597h118.016v-77.884c0-13.704 11.098-24.787 24.787-24.787s24.787 11.083 24.787 24.787v77.884h118.016c12.378 0 22.423 10.571 22.423 23.597 0 13.041-10.044 23.597-22.423 23.597h-118.016v73.171h118.046zM807.424 941.809h-566.498c-62.464 0-113.288-50.824-113.288-113.303v-755.32c0-62.464 50.824-113.288 113.288-113.288h566.498c62.464 0 113.288 50.824 113.288 113.288v755.32c0.015 62.479-50.808 113.303-113.288 113.303zM882.959 73.186c0-41.653-33.882-75.535-75.535-75.535h-566.498c-41.653 0-75.535 33.882-75.535 75.535v755.32c0 41.653 33.882 75.535 75.535 75.535h566.498c41.653 0 75.535-33.882 75.535-75.535v-755.32zM787.968 828.868l-253.47-179.531-331.49 214.904c-8.749 5.677-20.435 3.177-26.112-5.572s-3.177-20.435 5.572-26.112l352.964-228.819 274.357 194.319c8.508 6.024 10.526 17.815 4.503 26.323s-17.8 10.511-26.323 4.488z" />
<glyph unicode="&#xe920;" glyph-name="personage" d="M512.452 414.493c-148.48 0-269.141 120.842-269.141 269.14s120.661 269.143 269.139 269.143 269.142-120.843 269.142-269.141-120.662-269.142-269.14-269.142zM512.452 892.083c-114.882 0-208.45-93.568-208.45-208.45s93.568-208.448 208.45-208.448 208.448 93.567 208.448 208.449-93.567 208.449-208.448 208.449zM896.655-56.233h-768.407c-47.506 0-85.98 38.655-85.98 85.98v58.164l1.806 5.058c57.802 160.22 250.356 272.211 468.378 272.211s410.575-111.99 468.377-272.21l1.806-5.058v-58.163c0-47.506-38.655-85.98-85.98-85.98zM103.14 77.073v-47.325c0-13.909 11.38-25.289 25.288-25.289h768.226c13.908 0 25.288 11.38 25.288 25.289v47.506c-51.48 134.028-218.925 227.054-409.491 227.054s-358.011-93.026-409.311-227.235z" />
<glyph unicode="&#xe921;" glyph-name="Setting" d="M915.627 544.853l-62.293 6.4c-7.828 25.142-17.092 46.755-28.258 67.18l0.951-1.9 39.253 48.213c6.246 8.623 9.991 19.414 9.991 31.079 0 15.107-6.281 28.747-16.374 38.451l-0.018 0.017-60.587 61.013c-10.009 10.27-23.976 16.641-39.432 16.641-0.087 0-0.174 0-0.261-0.001h0.013c-0.178 0.002-0.388 0.004-0.599 0.004-11.111 0-21.321-3.861-29.36-10.315l0.092 0.071-46.080-39.253c-19.146 10.211-41.505 19.358-64.839 26.23l-2.574 0.65-6.827 61.44c-3.674 25.71-25.544 45.257-51.981 45.257-0.626 0-1.249-0.011-1.869-0.033l0.090 0.002h-85.333c-0.447 0.013-0.972 0.021-1.5 0.021-25.687 0-47.132-18.159-52.199-42.341l-0.061-0.347-6.827-64c-25.026-7.57-46.656-16.848-66.985-28.179l1.705 0.873-48.213 39.68c-8.050 6.384-18.355 10.241-29.562 10.241-0.107 0-0.214 0-0.322-0.001h0.016c-15.511-0.132-29.516-6.466-39.68-16.64v0l-61.013-61.013c-10.11-9.721-16.391-23.36-16.391-38.467 0-11.665 3.745-22.456 10.099-31.235l-0.107 0.156 39.253-48.213c-10.074-18.515-19.201-40.139-26.192-62.702l-0.688-2.578-61.44-6.4c-25.745-3.867-45.259-25.83-45.259-52.351 0-0.646 0.012-1.288 0.034-1.928l-0.003 0.093v-85.333c-0.013-0.447-0.021-0.972-0.021-1.5 0-25.687 18.159-47.132 42.341-52.199l0.347-0.061 64-6.827c7.522-25.908 16.669-48.267 27.835-69.395l-0.955 1.982-39.253-48.213c-6.246-8.623-9.991-19.414-9.991-31.079 0-15.107 6.281-28.747 16.374-38.451l0.018-0.017 61.013-61.013c10.115-10.25 24.152-16.608 39.674-16.64h0.006c11.298 0.066 21.686 3.907 29.981 10.325l-0.114-0.085 48.213 39.253c18.472-9.378 40.152-17.816 62.719-24.134l2.561-0.612 6.4-61.44c4.063-25.772 26.116-45.247 52.717-45.247 0.517 0 1.032 0.007 1.545 0.022l-0.075-0.002h85.333c0.422-0.012 0.918-0.019 1.416-0.019 26.281 0 48.050 19.318 51.881 44.528l0.036 0.291 7.253 61.867c25.908 7.522 48.267 16.669 69.395 27.835l-1.982-0.955 48.213-39.253c8.18-6.333 18.569-10.174 29.852-10.24h0.015c15.528 0.032 29.565 6.39 39.674 16.634l61.019 61.019c10.11 9.721 16.391 23.36 16.391 38.467 0 11.665-3.745 22.456-10.099 31.235l0.107-0.156-41.387 46.080c10.211 19.146 19.358 41.505 26.23 64.839l0.65 2.574 61.867 6.4c24.528 5.128 42.688 26.573 42.688 52.26 0 0.527-0.008 1.053-0.023 1.577l0.002-0.077v85.76c0.024 0.6 0.038 1.304 0.038 2.012 0 25.54-17.952 46.887-41.926 52.111l-0.352 0.064zM917.76 405.333c0.005-0.136 0.008-0.295 0.008-0.455 0-4.815-2.75-8.987-6.765-11.032l-0.070-0.032-90.453-9.387-3.84-14.507c-8.098-30.923-19.639-58.039-34.506-82.939l0.8 1.445-7.68-12.8 57.6-70.827c0.388-1.104 0.612-2.378 0.612-3.703 0-3.687-1.732-6.969-4.426-9.077l-0.025-0.019-61.013-61.44c-2.579-2.435-5.991-4.013-9.766-4.264l-0.048-0.003h-2.987l-70.827 57.6-12.8-7.253c-23.576-14.507-50.86-26.215-79.848-33.681l-2.072-0.453-14.080-3.413-9.387-90.88c-2.078-4.085-6.25-6.835-11.065-6.835-0.16 0-0.32 0.003-0.478 0.009l0.023-0.001h-85.333c-0.214-0.014-0.464-0.021-0.716-0.021-4.746 0-8.845 2.767-10.773 6.776l-0.031 0.072-9.387 90.88-14.507 3.413c-30.913 8.033-58.040 19.73-82.82 34.888l1.327-0.755-11.093 8.107-72.96-57.6h-3.413c-3.666 0.355-6.913 1.915-9.393 4.273l0.007-0.006-61.013 60.587c-2.487 2.2-4.047 5.399-4.047 8.962 0 1.374 0.232 2.694 0.659 3.922l-0.025-0.084 57.6 70.827-7.68 12.8c-14.153 23.581-25.704 50.85-33.226 79.746l-0.481 2.174-3.84 14.080-90.453 9.387c-4.085 2.078-6.835 6.25-6.835 11.065 0 0.16 0.003 0.32 0.009 0.478l-0.001-0.023v85.333c-0.014 0.214-0.021 0.464-0.021 0.716 0 4.746 2.767 8.845 6.776 10.773l0.072 0.031 90.453 9.387 3.84 14.507c8.033 30.913 19.73 58.040 34.888 82.82l-0.755-1.327 7.253 11.093-57.6 72.96c-0.318 1.006-0.502 2.163-0.502 3.363 0 3.638 1.686 6.881 4.319 8.993l0.023 0.018 61.013 61.44c2.579 2.435 5.991 4.013 9.766 4.264l0.048 0.003h2.987l72.533-58.453 12.8 7.68c23.454 14.068 50.57 25.609 79.288 33.21l2.205 0.496 14.507 3.84 9.387 90.453c0 2.987 5.547 6.827 11.52 6.827h85.333c0.294 0.027 0.636 0.042 0.981 0.042 4.679 0 8.706-2.789 10.51-6.796l0.029-0.073 9.387-90.453 14.507-3.84c30.923-8.098 58.039-19.639 82.939-34.506l-1.445 0.8 12.8-7.68 70.827 57.6h2.987c3.846-0.128 7.294-1.735 9.813-4.266l0.001-0.001 59.733-60.587c2.487-2.2 4.047-5.399 4.047-8.962 0-1.374-0.232-2.694-0.659-3.922l0.025 0.084-57.6-72.533 7.68-12.8c14.068-23.454 25.609-50.57 33.21-79.288l0.496-2.205 3.84-14.507 90.453-9.387c4.081-1.959 6.848-6.058 6.848-10.804 0-0.252-0.008-0.502-0.023-0.75l0.002 0.034v-85.333zM512 588.8c-77.762 0-140.8-63.038-140.8-140.8s63.038-140.8 140.8-140.8c77.762 0 140.8 63.038 140.8 140.8v0c-0.481 77.568-63.232 140.319-140.754 140.8h-0.046zM512 349.867c-54.198 0-98.133 43.936-98.133 98.133s43.936 98.133 98.133 98.133c54.198 0 98.133-43.936 98.133-98.133v0c0-54.198-43.936-98.133-98.133-98.133v0z" />
<glyph unicode="&#xe922;" glyph-name="VIP" d="M236.145 346.17l-77.392 278.248h-96.475l116.195-389.152h97.4l116.86 389.152h-75.975l-80.613-278.248zM456.618 235.266h90.408v389.153h-90.408v-389.153zM932.568 574.247c-14.173 18.808-30.281 31.869-48.326 39.193-18.044 7.31-44.062 10.979-78.070 10.979h-152.471v-389.152h92.098v144.548h63.768c27.594 0 47.849 1.705 60.792 5.129s26.308 10.358 40.104 20.803c13.797 10.459 24.473 24.804 32.029 43.049s11.326 36.968 11.326 56.167c0.001 27.375-7.079 50.46-21.251 69.284zM848.964 466.189c-9.072-10.459-24.848-15.674-47.328-15.674h-58.943v103.204h58.653c20.601 0 35.943-4.666 46.057-13.969 10.113-9.317 15.168-21.857 15.168-37.632 0.001-13.508-4.535-25.469-13.607-35.928z" />
<glyph unicode="&#xe923;" glyph-name="wallet" d="M511.997 870.009c-236.088 0-428.146-192.057-428.146-428.146 0-236.094 192.057-428.151 428.146-428.151 236.094 0 428.151 192.057 428.151 428.151 0 236.089-192.057 428.146-428.151 428.146zM549.786 134.37v-36.069h-75.571v35.002c-124.437 6.272-186.65 69.436-186.65 189.435h127.756c0-56.010 19.638-88.654 58.894-97.918v159.065c-128.721 24.749-188.661 86.078-179.745 184.005 8.817 95.119 68.767 153.022 179.745 173.752v43.779h75.571v-43.188c115.208-16.518 172.839-74.619 172.839-174.344h-127.757c-3.99 47.507-19.002 76.246-45.083 86.32v-165.052c124.388-26.785 178.464-75.779 178.464-185.99 0-105.707-65.14-154.212-178.464-168.797zM549.786 365.777v-140.583c30.322 8.252 46.501 31.557 48.535 69.919 0 32.512-16.187 56.086-48.535 70.663zM432.584 574.796c-2.032-32.277 11.834-53.957 41.629-65.002v145.368c-25.775-8.116-39.683-34.892-41.629-80.365z" />
<glyph unicode="&#xe924;" glyph-name="With-gold" d="M847.4 4.1h-669.6c-40 0-73.4 33.4-73.4 73.4v551.7c0 40 33.4 73.4 73.4 73.4 4.4 0 8.9 0 13.3-2.2l322.5-135.7 320.4 135.7c4.4 2.2 8.9 2.2 13.3 2.2 40 0 73.4-33.4 73.4-73.4v-549.4c2.3-42.3-31.1-75.7-73.3-75.7zM847.4 77.5v0zM177.8 624.7v-547.2h669.6v547.2l-320.3-135.7c-8.9-4.4-20-4.4-28.9 0l-320.4 135.7zM513.7 300c-8.9 0-20 4.4-26.7 11.1l-80.1 82.3c-13.3 15.6-13.3 37.8 0 53.4 15.6 13.3 37.8 13.3 53.4 0l80.1-82.3c13.3-15.6 13.3-37.8 0-53.4-8.9-6.7-17.8-11.1-26.7-11.1zM513.7 300c-8.9 0-17.8 4.4-26.7 11.1-15.6 13.3-15.6 37.8 0 53.4l80.1 82.3c13.3 15.6 37.8 15.6 53.4 0 15.6-13.3 15.6-37.8 0-53.4l-80.1-82.3c-6.7-6.7-17.8-11.1-26.7-11.1zM587.1 277.7h-149c-20 0-37.8 15.6-37.8 37.8s15.6 37.8 37.8 37.8h149c20 0 37.8-15.6 37.8-37.8s-15.5-37.8-37.8-37.8zM587.1 166.5h-149c-20 0-35.6 15.6-35.6 37.8s15.6 37.8 37.8 37.8h149c20 0 37.8-15.6 37.8-37.8s-17.7-37.8-40-37.8zM513.7 122c-20 0-37.8 15.6-37.8 37.8v166.8c0 20 15.6 37.8 37.8 37.8s37.8-15.6 37.8-37.8v-166.8c0-20-17.8-37.8-37.8-37.8zM215.6 611.4c-20 0-35.6 17.8-35.6 37.8v175.7c0 37.8 33.4 69 73.4 69h520.6c40 0 73.4-31.1 73.4-69v-33.4c0-20-15.6-37.8-37.8-37.8-20 0-37.8 15.6-37.8 37.8v26.7h-520.6v-169.1c2.3-19.9-15.5-37.7-35.6-37.7zM624.9 671.4h-222.4c-20 0-37.8 15.6-37.8 37.8 0 20 15.6 37.8 37.8 37.8h222.4c20 0 37.8-15.6 37.8-37.8 0.1-22.2-17.7-37.8-37.8-37.8z" />
</font>
</defs>
</svg>
